<?xml version="1.0" encoding="utf-8"?>
<!-- Generator: Adobe Illustrator 24.0.3, SVG Export Plug-In . SVG Version: 6.00 Build 0)  -->
<svg version="1.1" id="Camada_1" xmlns="http://www.w3.org/2000/svg" xmlns:xlink="http://www.w3.org/1999/xlink" x="0px" y="0px"
	 viewBox="0 0 49 52" style="enable-background:new 0 0 49 52;" xml:space="preserve">
<g>
	<path d="M42.3,8.2c-4.3-4.3-10-6.7-16.1-6.7c0,0-0.1,0-0.1,0c-5.4,0-10.4,1.9-14.6,5.2V1c0-0.6-0.4-1-1-1s-1,0.4-1,1v8
		c0,0.1,0,0.3,0.1,0.4c0.1,0.2,0.3,0.4,0.5,0.5c0.1,0.1,0.3,0.1,0.4,0.1h9c0.5,0,1-0.4,1-1s-0.5-1-1-1h-6.3
		c3.7-2.9,8.2-4.5,12.9-4.5c0,0,0.1,0,0.1,0c5.6,0,10.8,2.2,14.7,6.1c7.8,7.8,8.1,20.4,0.8,28.7c-0.4,0.4-0.3,1,0.1,1.4
		c0.2,0.2,0.4,0.2,0.7,0.2c0.3,0,0.5-0.1,0.8-0.3C51.2,30.5,50.8,16.7,42.3,8.2z"/>
	<path d="M38.9,42.1C38.7,42,38.6,42,38.5,42h-9c-0.5,0-1,0.5-1,1s0.5,1,1,1h6.3c-3.7,2.9-8.2,4.5-12.9,4.5
		c-5.6,0-10.9-2.1-14.8-6.1C0.3,34.6-0.1,22,7.2,13.7c0.4-0.4,0.3-1.1-0.1-1.4C6.7,12,6.1,12,5.7,12.4c-8,9.1-7.6,22.9,0.9,31.4
		c4.3,4.3,10,6.7,16.1,6.7c0,0,0.1,0,0.1,0c5.4,0,10.4-1.9,14.6-5.2V51c0,0.5,0.5,1,1,1s1-0.5,1-1v-8c0-0.1,0-0.3-0.1-0.4
		C39.3,42.4,39.1,42.2,38.9,42.1z"/>
</g>
</svg>
