<?xml version="1.0" encoding="utf-8"?>
<!-- Generator: Adobe Illustrator 24.0.3, SVG Export Plug-In . SVG Version: 6.00 Build 0)  -->
<svg version="1.1" id="Camada_1" xmlns:sketch="http://www.bohemiancoding.com/sketch/ns"
	 xmlns="http://www.w3.org/2000/svg" xmlns:xlink="http://www.w3.org/1999/xlink" x="0px" y="0px" viewBox="0 0 50 53"
	 style="enable-background:new 0 0 50 53;" xml:space="preserve">
<style type="text/css">
	.st0{fill-rule:evenodd;clip-rule:evenodd;fill:#FFFFFF;}
</style>
<title>59 - Spin (Solid)</title>
<desc>Created with Sketch.</desc>
<g sketch:type="MSLayerGroup">
	<path sketch:type="MSShapeGroup" class="st0" d="M23.3,48.5h0.1c4.1,0,8-1.2,11.4-3.5H30c-0.8,0-1.5-0.7-1.5-1.5S29.2,42,30,42h9
		c0.1,0,0.2,0,0.3,0c0.1,0,0.2,0,0.3,0c0.8,0,1.5,0.7,1.5,1.5v8c0,0.8-0.7,1.5-1.5,1.5c-0.8,0-1.5-0.7-1.5-1.5v-5.1
		c-4.1,3.3-9.2,5.1-14.6,5.1h-0.1c-6.2,0-12.1-2.4-16.5-6.8c-8.7-8.7-9.1-22.8-1-32.1c0.3-0.3,0.7-0.5,1.1-0.5c0.4,0,0.7,0.1,1,0.4
		c0.6,0.5,0.7,1.5,0.1,2.1C1,22.7,1.4,35,9,42.6C12.8,46.4,17.9,48.5,23.3,48.5"/>
	<path sketch:type="MSShapeGroup" class="st0" d="M44.1,40.4c-0.5,0.6-1.5,0.7-2.1,0.1c-0.6-0.5-0.7-1.5-0.1-2.1
		c7.1-8.1,6.8-20.4-0.8-28c-3.8-3.8-8.9-5.9-14.4-5.9h-0.1c-4.1,0-8,1.2-11.4,3.5H20c0.8,0,1.5,0.7,1.5,1.5S20.8,11,20,11h-9
		c-0.1,0-0.2,0-0.2,0c-0.1,0-0.2,0-0.2,0C9.7,11,9,10.3,9,9.5v-8C9,0.7,9.7,0,10.5,0C11.4,0,12,0.7,12,1.5v5.1
		c4.1-3.3,9.2-5.1,14.5-5.1h0.1c6.2,0,12.1,2.4,16.5,6.8C51.9,17,52.3,31.1,44.1,40.4"/>
</g>
</svg>
